<svg xmlns="http://www.w3.org/2000/svg" width="427.182" height="453.533" overflow="visible" xml:space="preserve"><path fill="#FFF" d="M232.57 266.011a264.553 264.553 0 0 0-1.393 8.943c-19.822-33.855-55.453-61.676-99.898-77.313-10.565-3.717-21.573-6.75-32.86-9.084-5.272-1.091-11.128-.917-13.731 3.562-2.351 4.042-.899 10.25-.64 14.502 1.182 19.391 7.059 38.453 17.378 56.01 19.416 33.034 54.01 60.366 97.076 76.11 10.441 3.817 21.336 6.962 32.522 9.414 6.38 1.396 11.305 2.358 16.26-1.914 17.133-14.788 32.749-30.564 46.616-47.155 57.045-68.263 83.68-149.662 74.706-228.649-.43-3.824-5.108-6.607-10.184-6.051-6 .656-10.354 6.312-13.977 9.576a416.89 416.89 0 0 0-23.881 23.311c-15.044 15.934-28.415 32.74-39.947 50.21-24.616 37.294-40.991 77.578-48.047 118.528zm174.227-42.902c-11.497-.237-21.008 8.89-21.245 20.386-1.959 94.819-80.693 170.367-175.515 168.408-45.931-.948-88.743-19.726-120.551-52.874-31.809-33.148-48.804-76.703-47.854-122.634.948-45.933 19.726-88.746 52.876-120.555 28.604-27.446 64.956-43.851 103.896-47.227l-.389 18.841a6.243 6.243 0 0 0 2.867 5.382 6.243 6.243 0 0 0 6.087.374l81.021-39.014a6.247 6.247 0 0 0 .23-11.14L208.878.734a6.242 6.242 0 0 0-9.184 5.382l-.428 20.683c-50.078 3.279-96.951 23.843-133.589 58.998C24.502 125.305 1.178 178.483 0 235.533c-1.178 57.054 19.932 111.151 59.442 152.326 39.508 41.174 92.684 64.497 149.735 65.674 117.776 2.434 215.573-91.404 218.005-209.179.238-11.496-8.89-21.008-20.385-21.245z"/></svg>