<svg xmlns="http://www.w3.org/2000/svg" width="512" height="512" overflow="visible" xml:space="preserve"><path fill="#339AF0" d="M512 446.639C512 482.736 482.733 512 446.639 512H65.362C29.266 512 0 482.736 0 446.639V65.361C0 29.263 29.266 0 65.362 0h381.277C482.733 0 512 29.263 512 65.361v381.278z"/><path fill="#FFF" d="M274.169 284.773a258.927 258.927 0 0 0-1.365 8.776c-19.451-33.222-54.415-60.521-98.028-75.866-10.367-3.648-21.168-6.625-32.245-8.914-5.172-1.071-10.919-.9-13.474 3.495-2.308 3.967-.883 10.059-.628 14.231 1.159 19.028 6.927 37.733 17.053 54.961 19.052 32.415 52.999 59.235 95.259 74.686 10.246 3.745 20.937 6.83 31.912 9.236 6.261 1.369 11.093 2.315 15.955-1.878 16.813-14.512 32.136-29.992 45.743-46.272 55.978-66.983 82.113-146.86 73.31-224.367-.423-3.752-5.014-6.483-9.993-5.938-5.887.645-10.161 6.193-13.714 9.397a407.887 407.887 0 0 0-23.434 22.875c-14.763 15.635-27.884 32.127-39.199 49.27-24.16 36.597-40.229 76.125-47.152 116.308zm170.964-42.099c-11.28-.233-20.614 8.723-20.848 20.004-1.922 93.044-79.183 167.177-172.228 165.255-45.071-.931-87.082-19.355-118.293-51.885-31.213-32.528-47.89-75.267-46.959-120.338.93-45.071 19.357-87.083 51.886-118.295 28.068-26.933 63.739-43.03 101.95-46.343l-.382 18.489a6.129 6.129 0 0 0 8.785 5.649l79.504-38.284a6.131 6.131 0 0 0 3.47-5.396 6.133 6.133 0 0 0-3.243-5.534L250.92 24.464a6.127 6.127 0 0 0-9.012 5.28l-.42 20.296c-49.14 3.218-95.135 23.396-131.086 57.894-40.403 38.769-63.292 90.95-64.448 146.932-1.155 55.985 19.559 109.07 58.328 149.474 38.768 40.402 90.948 63.289 146.931 64.443 115.571 2.388 211.537-89.693 213.922-205.262.235-11.28-8.722-20.613-20.002-20.847z"/></svg>